<?xml version="1.0" encoding="UTF-8" standalone="no"?>
<!-- Created with Inkscape (http://www.inkscape.org/) -->

<svg
   xmlns:dc="http://purl.org/dc/elements/1.1/"
   xmlns:cc="http://creativecommons.org/ns#"
   xmlns:rdf="http://www.w3.org/1999/02/22-rdf-syntax-ns#"
   xmlns:svg="http://www.w3.org/2000/svg"
   xmlns="http://www.w3.org/2000/svg"
   xmlns:xlink="http://www.w3.org/1999/xlink"
   xmlns:sodipodi="http://sodipodi.sourceforge.net/DTD/sodipodi-0.dtd"
   xmlns:inkscape="http://www.inkscape.org/namespaces/inkscape"
   width="780"
   height="80"
   viewBox="0 0 206.37499 21.166667"
   version="1.1"
   id="svg8"
   inkscape:version="0.92.3 (2405546, 2018-03-11)"
   sodipodi:docname="banner.svg"
   inkscape:export-filename="/home/quique/workspace/lliurex-quota-gui/rsrc/banner.png"
   inkscape:export-xdpi="96"
   inkscape:export-ydpi="96">
  <defs
     id="defs2">
    <linearGradient
       inkscape:collect="always"
       id="linearGradient1139">
      <stop
         style="stop-color:#fcfcfc;stop-opacity:1"
         offset="0"
         id="stop1135" />
      <stop
         style="stop-color:#ececec;stop-opacity:1"
         offset="1"
         id="stop1137" />
    </linearGradient>
    <linearGradient
       inkscape:collect="always"
       xlink:href="#linearGradient1139"
       id="linearGradient1141"
       x1="79.230751"
       y1="285.55557"
       x2="79.230751"
       y2="296.54929"
       gradientUnits="userSpaceOnUse"
       gradientTransform="matrix(1.1999999,0,0,1.5999999,0,-178.19997)" />
    <mask
       maskUnits="userSpaceOnUse"
       id="mask1251">
      <rect
         style="opacity:1;vector-effect:none;fill:#16a085;fill-opacity:1;stroke:none;stroke-width:0.40000001;stroke-linecap:round;stroke-linejoin:round;stroke-miterlimit:4;stroke-dasharray:none;stroke-dashoffset:0;stroke-opacity:1;paint-order:normal"
         id="rect1253"
         width="171.97917"
         height="13.229167"
         x="-75.028275"
         y="339.7113" />
    </mask>
  </defs>
  <sodipodi:namedview
     id="base"
     pagecolor="#ffffff"
     bordercolor="#666666"
     borderopacity="1.0"
     inkscape:pageopacity="0.0"
     inkscape:pageshadow="2"
     inkscape:zoom="1.4"
     inkscape:cx="339.42486"
     inkscape:cy="26.553217"
     inkscape:document-units="px"
     inkscape:current-layer="layer1"
     showgrid="false"
     units="px"
     inkscape:showpageshadow="false"
     inkscape:window-width="1920"
     inkscape:window-height="1009"
     inkscape:window-x="0"
     inkscape:window-y="0"
     inkscape:window-maximized="1"
     showguides="true"
     inkscape:guide-bbox="true"
     inkscape:snap-global="false">
    <sodipodi:guide
       position="85.989583,0"
       orientation="1,0"
       id="guide930"
       inkscape:locked="false"
       inkscape:label=""
       inkscape:color="rgb(0,0,255)" />
  </sodipodi:namedview>
  <metadata
     id="metadata5">
    <rdf:RDF>
      <cc:Work
         rdf:about="">
        <dc:format>image/svg+xml</dc:format>
        <dc:type
           rdf:resource="http://purl.org/dc/dcmitype/StillImage" />
        <dc:title />
      </cc:Work>
    </rdf:RDF>
  </metadata>
  <g
     inkscape:label="Capa 1"
     inkscape:groupmode="layer"
     id="layer1"
     transform="translate(0,-275.83332)">
    <rect
       style="opacity:1;vector-effect:none;fill:url(#linearGradient1141);fill-opacity:1;stroke:none;stroke-width:0.5542562;stroke-linecap:round;stroke-linejoin:round;stroke-miterlimit:4;stroke-dasharray:none;stroke-dashoffset:0;stroke-opacity:1;paint-order:normal"
       id="rect815"
       width="206.375"
       height="21.166666"
       x="-3.1264649e-06"
       y="275.83331" />
    <rect
       style="opacity:1;vector-effect:none;fill:#f47750;fill-opacity:1;stroke:none;stroke-width:0.25029027;stroke-linecap:round;stroke-linejoin:round;stroke-miterlimit:4;stroke-dasharray:none;stroke-dashoffset:0;stroke-opacity:1;paint-order:normal"
       id="rect1133"
       width="28.340071"
       height="4.6876974"
       x="174.95389"
       y="278.61404" />
    <flowRoot
       xml:space="preserve"
       id="flowRoot820"
       style="font-style:normal;font-weight:normal;font-size:40px;line-height:1.25;font-family:sans-serif;letter-spacing:0px;word-spacing:0px;fill:#000000;fill-opacity:1;stroke:none"
       transform="matrix(0.26458333,0,0,0.26458333,0,283.77082)"><flowRegion
         id="flowRegion822"><rect
           id="rect824"
           width="135.71428"
           height="50"
           x="-93.571426"
           y="-143.57143" /></flowRegion><flowPara
         id="flowPara826">Quotas</flowPara></flowRoot>    <path
       style="opacity:1;vector-effect:none;fill:#7f8c8d;fill-opacity:1;stroke:none;stroke-width:0.83429134;stroke-linecap:round;stroke-linejoin:round;stroke-miterlimit:4;stroke-dasharray:none;stroke-dashoffset:0;stroke-opacity:1;paint-order:normal"
       d="m 2.0241629,277.00621 v 1.70782 H 2.789349 v 5.03317 h 1.7078155 v -5.03317 H 12.27417 v 5.03317 h 1.707194 v -5.03317 h 7.777005 v 5.03317 h 1.707815 v -5.03317 h 7.777006 v 5.03317 h 1.707815 v -5.03317 h 7.777008 v 5.03317 h 1.707815 v -5.03317 h 7.777004 v 6.94582 h 1.707193 v -6.94582 h 7.777007 v 5.03317 h 1.707816 v -5.03317 h 7.777003 v 5.03317 h 1.707815 v -5.03317 h 7.777008 v 5.03317 h 1.707815 v -5.03317 h 7.776383 v 5.03317 h 1.707815 v -5.03317 h 7.777008 v 6.94582 h 1.707815 v -6.94582 h 7.77701 v 5.03317 h 1.70781 v -5.03317 h 7.77701 v 5.03317 h 1.70719 v -5.03317 h 7.77701 v 5.03317 h 1.70781 v -5.03317 h 7.77701 v 5.03317 h 1.70781 v -5.03317 h 7.77701 v 6.94582 h 1.70782 v -6.94582 h 7.777 v 5.03317 h 1.70719 v -5.03317 h 7.777 v 5.03317 h 1.70783 v -5.03317 h 7.777 v 5.03317 h 1.70781 v -5.03317 h 7.77701 v 5.03317 h 1.70781 v -5.03317 h 7.77639 v 6.94582 h 1.70781 v -6.94582 h 7.77701 v 5.03317 h 1.70781 v -5.03317 h 0.67616 v -1.70782 z"
       id="rect1005"
       inkscape:connector-curvature="0"
       sodipodi:nodetypes="ccccccccccccccccccccccccccccccccccccccccccccccccccccccccccccccccccccccccccccccccccccccccccccc" />
    <path
       style="fill:#7f8c8d;stroke:none;stroke-width:0.11182068px;stroke-linecap:butt;stroke-linejoin:miter;stroke-opacity:1"
       d="m 94.019781,290.91961 -1.26953,6.08038 h 2.53906 z"
       id="path1131"
       inkscape:connector-curvature="0"
       sodipodi:nodetypes="cccc" />
    <g
       aria-label="LliureX Quota"
       style="font-style:normal;font-variant:normal;font-weight:bold;font-stretch:normal;font-size:6.3755064px;line-height:1.25;font-family:Poppins;-inkscape-font-specification:'Poppins Bold';letter-spacing:0px;word-spacing:0px;fill:#7f8c8d;fill-opacity:1;stroke:none;stroke-width:0.15938766"
       id="text846"
       transform="matrix(1.3481034,0,0,1.3481034,-0.84162246,-103.10376)">
      <path
         d="M 3.5079487,290.94651 H 2.4177371 v 4.47561 h 2.518325 v -0.84157 H 3.5079487 Z"
         style="font-style:normal;font-variant:normal;font-weight:bold;font-stretch:normal;font-family:Poppins;-inkscape-font-specification:'Poppins Bold';fill:#7f8c8d;fill-opacity:1;stroke-width:0.15938766"
         id="path848"
         inkscape:connector-curvature="0" />
      <path
         d="m 5.4560643,290.70424 v 4.71788 h 1.0902116 v -4.71788 z"
         style="font-style:normal;font-variant:normal;font-weight:bold;font-stretch:normal;font-family:Poppins;-inkscape-font-specification:'Poppins Bold';fill:#7f8c8d;fill-opacity:1;stroke-width:0.15938766"
         id="path850"
         inkscape:connector-curvature="0" />
      <path
         d="m 7.3363405,291.86459 v 3.55753 h 1.0902116 v -3.55753 z m 0.5482936,-0.36978 c 0.3825303,0 0.6439261,-0.2614 0.6439261,-0.58655 0,-0.33153 -0.2613958,-0.59292 -0.6439261,-0.59292 -0.3889059,0 -0.6503017,0.26139 -0.6503017,0.59292 0,0.32515 0.2613958,0.58655 0.6503017,0.58655 z"
         style="font-style:normal;font-variant:normal;font-weight:bold;font-stretch:normal;font-family:Poppins;-inkscape-font-specification:'Poppins Bold';fill:#7f8c8d;fill-opacity:1;stroke-width:0.15938766"
         id="path852"
         inkscape:connector-curvature="0" />
      <path
         d="m 12.729521,295.42212 v -3.55753 h -1.090212 v 1.93178 c 0,0.48453 -0.267771,0.7523 -0.688555,0.7523 -0.408032,0 -0.682179,-0.26777 -0.682179,-0.7523 v -1.93178 H 9.1847392 v 2.07841 c 0,0.94995 0.554669,1.51737 1.3771098,1.51737 0.478163,0 0.860693,-0.21677 1.07746,-0.52279 v 0.48454 z"
         style="font-style:normal;font-variant:normal;font-weight:bold;font-stretch:normal;font-family:Poppins;-inkscape-font-specification:'Poppins Bold';fill:#7f8c8d;fill-opacity:1;stroke-width:0.15938766"
         id="path854"
         inkscape:connector-curvature="0" />
      <path
         d="m 14.602824,293.77086 c 0,-0.61205 0.299649,-0.79056 0.816065,-0.79056 h 0.299649 v -1.15397 c -0.478163,0 -0.867069,0.25502 -1.115714,0.63118 v -0.59292 h -1.090212 v 3.55753 h 1.090212 z"
         style="font-style:normal;font-variant:normal;font-weight:bold;font-stretch:normal;font-family:Poppins;-inkscape-font-specification:'Poppins Bold';fill:#7f8c8d;fill-opacity:1;stroke-width:0.15938766"
         id="path856"
         inkscape:connector-curvature="0" />
      <path
         d="m 17.808011,292.68703 c 0.363404,0 0.669428,0.22314 0.669428,0.61205 h -1.364358 c 0.06376,-0.39529 0.337902,-0.61205 0.69493,-0.61205 z m 1.70226,1.55562 h -1.160342 c -0.08926,0.19127 -0.261396,0.34428 -0.56742,0.34428 -0.350653,0 -0.637551,-0.21677 -0.675804,-0.68218 h 2.467321 c 0.01275,-0.10838 0.01913,-0.21677 0.01913,-0.31878 0,-1.08383 -0.733183,-1.77239 -1.772391,-1.77239 -1.058334,0 -1.797893,0.70131 -1.797893,1.82977 0,1.12847 0.75231,1.82977 1.797893,1.82977 0.886195,0 1.517371,-0.53554 1.689509,-1.23047 z"
         style="font-style:normal;font-variant:normal;font-weight:bold;font-stretch:normal;font-family:Poppins;-inkscape-font-specification:'Poppins Bold';fill:#7f8c8d;fill-opacity:1;stroke-width:0.15938766"
         id="path858"
         inkscape:connector-curvature="0" />
      <path
         d="m 22.903534,295.42212 h 1.268726 l -1.479117,-2.21868 1.421738,-2.25693 h -1.236849 l -0.790563,1.35161 -0.898946,-1.35161 h -1.268726 l 1.466367,2.19955 -1.434489,2.27606 h 1.236848 l 0.803314,-1.37073 z"
         style="font-style:normal;font-variant:normal;font-weight:bold;font-stretch:normal;font-family:Poppins;-inkscape-font-specification:'Poppins Bold';fill:#7f8c8d;fill-opacity:1;stroke-width:0.15938766"
         id="path860"
         inkscape:connector-curvature="0" />
      <path
         d="m 28.193511,294.47217 c -0.726808,0 -1.185845,-0.51642 -1.185845,-1.3006 0,-0.79694 0.459037,-1.30061 1.185845,-1.30061 0.714056,0 1.179468,0.50367 1.179468,1.30061 0,0.78418 -0.465412,1.3006 -1.179468,1.3006 z m 0,0.99458 c 0.172138,0 0.337901,-0.0191 0.497289,-0.051 l 0.573796,0.77144 h 1.319729 l -0.981828,-1.17947 c 0.535543,-0.40803 0.87982,-1.05196 0.87982,-1.83614 0,-1.34524 -1.013705,-2.28881 -2.288806,-2.28881 -1.268726,0 -2.301558,0.94357 -2.301558,2.28881 0,1.34523 1.032832,2.29518 2.301558,2.29518 z"
         style="font-style:normal;font-variant:normal;font-weight:bold;font-stretch:normal;font-family:Poppins;-inkscape-font-specification:'Poppins Bold';fill:#7f8c8d;fill-opacity:1;stroke-width:0.15938766"
         id="path862"
         inkscape:connector-curvature="0" />
      <path
         d="m 34.607967,295.42212 v -3.55753 h -1.090211 v 1.93178 c 0,0.48453 -0.267772,0.7523 -0.688555,0.7523 -0.408032,0 -0.682179,-0.26777 -0.682179,-0.7523 v -1.93178 h -1.083836 v 2.07841 c 0,0.94995 0.554669,1.51737 1.377109,1.51737 0.478163,0 0.860694,-0.21677 1.077461,-0.52279 v 0.48454 z"
         style="font-style:normal;font-variant:normal;font-weight:bold;font-stretch:normal;font-family:Poppins;-inkscape-font-specification:'Poppins Bold';fill:#7f8c8d;fill-opacity:1;stroke-width:0.15938766"
         id="path864"
         inkscape:connector-curvature="0" />
      <path
         d="m 37.01044,295.47312 c 1.045583,0 1.861647,-0.7013 1.861647,-1.82977 0,-1.12846 -0.803313,-1.82977 -1.848896,-1.82977 -1.039208,0 -1.848897,0.70131 -1.848897,1.82977 0,1.12847 0.790562,1.82977 1.836146,1.82977 z m 0,-0.94357 c -0.395282,0 -0.726808,-0.2869 -0.726808,-0.8862 0,-0.60567 0.344277,-0.88619 0.739559,-0.88619 0.38253,0 0.739558,0.28052 0.739558,0.88619 0,0.5993 -0.363404,0.8862 -0.752309,0.8862 z"
         style="font-style:normal;font-variant:normal;font-weight:bold;font-stretch:normal;font-family:Poppins;-inkscape-font-specification:'Poppins Bold';fill:#7f8c8d;fill-opacity:1;stroke-width:0.15938766"
         id="path866"
         inkscape:connector-curvature="0" />
      <path
         d="m 39.622602,290.99752 v 0.86707 h -0.433534 v 0.90532 h 0.433534 v 1.41536 c 0,0.92445 0.516416,1.23685 1.255975,1.23685 h 0.554669 v -0.92445 H 41.04434 c -0.242269,0 -0.331526,-0.0893 -0.331526,-0.29965 v -1.42811 h 0.714056 v -0.90532 h -0.714056 v -0.86707 z"
         style="font-style:normal;font-variant:normal;font-weight:bold;font-stretch:normal;font-family:Poppins;-inkscape-font-specification:'Poppins Bold';fill:#7f8c8d;fill-opacity:1;stroke-width:0.15938766"
         id="path868"
         inkscape:connector-curvature="0" />
      <path
         d="m 41.823746,293.63698 c 0,1.12209 0.69493,1.83614 1.561999,1.83614 0.529167,0 0.905322,-0.24227 1.102963,-0.55467 v 0.50367 h 1.090211 v -3.55753 h -1.090211 v 0.50366 c -0.191266,-0.3124 -0.56742,-0.55467 -1.096588,-0.55467 -0.873444,0 -1.568374,0.70131 -1.568374,1.8234 z m 2.664962,0.006 c 0,0.56742 -0.363404,0.87982 -0.777812,0.87982 -0.408033,0 -0.777812,-0.31877 -0.777812,-0.88619 0,-0.56742 0.369779,-0.87345 0.777812,-0.87345 0.414408,0 0.777812,0.3124 0.777812,0.87982 z"
         style="font-style:normal;font-variant:normal;font-weight:bold;font-stretch:normal;font-family:Poppins;-inkscape-font-specification:'Poppins Bold';fill:#7f8c8d;fill-opacity:1;stroke-width:0.15938766"
         id="path870"
         inkscape:connector-curvature="0" />
    </g>
    <rect
       style="opacity:1;vector-effect:none;fill:none;fill-opacity:1;stroke:#95a5a6;stroke-width:0.5542562;stroke-linecap:round;stroke-linejoin:round;stroke-miterlimit:4;stroke-dasharray:none;stroke-dashoffset:0;stroke-opacity:1;paint-order:normal"
       id="rect815-5"
       width="206.375"
       height="21.166666"
       x="-1.6875001e-06"
       y="275.83331" />
  </g>
</svg>
